<mxfile host="65bd71144e">
    <diagram id="BTGCz34x97Jdm9kKE40l" name="Page-1">
        <mxGraphModel dx="1030" dy="910" grid="1" gridSize="10" guides="1" tooltips="1" connect="1" arrows="1" fold="1" page="1" pageScale="1" pageWidth="827" pageHeight="1169" background="none" math="0" shadow="0">
            <root>
                <mxCell id="0"/>
                <mxCell id="1" parent="0"/>
                <mxCell id="2" value="" style="image;html=1;image=img/lib/clip_art/computers/Server_Tower_128x128.png;rounded=0;" parent="1" vertex="1">
                    <mxGeometry x="710" y="430" width="80" height="80" as="geometry"/>
                </mxCell>
                <mxCell id="3" value="" style="image;html=1;image=img/lib/clip_art/computers/Server_Tower_128x128.png;rounded=0;" parent="1" vertex="1">
                    <mxGeometry x="590" y="320" width="80" height="80" as="geometry"/>
                </mxCell>
                <mxCell id="4" value="" style="image;html=1;image=img/lib/clip_art/computers/Server_Tower_128x128.png;rounded=0;" parent="1" vertex="1">
                    <mxGeometry x="78" y="410" width="80" height="80" as="geometry"/>
                </mxCell>
                <mxCell id="5" value="" style="image;html=1;image=img/lib/clip_art/computers/Server_Tower_128x128.png;rounded=0;" parent="1" vertex="1">
                    <mxGeometry x="12" y="760" width="80" height="80" as="geometry"/>
                </mxCell>
                <mxCell id="6" value="" style="image;html=1;image=img/lib/clip_art/computers/Server_Tower_128x128.png;rounded=0;" parent="1" vertex="1">
                    <mxGeometry x="600" y="430" width="80" height="80" as="geometry"/>
                </mxCell>
                <mxCell id="13" value="" style="image;html=1;image=img/lib/clip_art/general/Earth_globe_128x128.png;rounded=0;" parent="1" vertex="1">
                    <mxGeometry x="360" y="130" width="80" height="80" as="geometry"/>
                </mxCell>
                <mxCell id="14" value="" style="image;html=1;image=img/lib/clip_art/networking/Router_Icon_128x128.png;rounded=0;" parent="1" vertex="1">
                    <mxGeometry x="360" y="280" width="80" height="80" as="geometry"/>
                </mxCell>
                <mxCell id="19" value="" style="image;html=1;image=img/lib/clip_art/networking/Firewall-page1_128x128.png;rounded=0;" parent="1" vertex="1">
                    <mxGeometry x="360" y="420" width="84" height="80" as="geometry"/>
                </mxCell>
                <mxCell id="20" value="" style="image;html=1;image=img/lib/clip_art/networking/Switch_128x128.png;rounded=0;" parent="1" vertex="1">
                    <mxGeometry x="362.13" y="570" width="80" height="80" as="geometry"/>
                </mxCell>
                <mxCell id="42" value="" style="image;html=1;image=img/lib/clip_art/computers/Server_Tower_128x128.png;rounded=0;" parent="1" vertex="1">
                    <mxGeometry x="710" y="320" width="80" height="80" as="geometry"/>
                </mxCell>
                <mxCell id="43" value="" style="image;html=1;image=img/lib/clip_art/computers/Server_Tower_128x128.png;rounded=0;" parent="1" vertex="1">
                    <mxGeometry x="12" y="650" width="80" height="80" as="geometry"/>
                </mxCell>
                <mxCell id="46" value="" style="verticalLabelPosition=bottom;verticalAlign=top;html=1;shape=mxgraph.basic.diag_round_rect;dx=6;textOpacity=0;rounded=0;" parent="1" vertex="1">
                    <mxGeometry x="80" y="10" width="190" height="150" as="geometry"/>
                </mxCell>
                <mxCell id="48" value="" style="image;html=1;image=img/lib/clip_art/people/Suit_Woman_Green_Black_128x128.png;rounded=0;" parent="1" vertex="1">
                    <mxGeometry x="180" y="20" width="80" height="80" as="geometry"/>
                </mxCell>
                <mxCell id="49" value="" style="image;html=1;image=img/lib/clip_art/people/Suit_Man_Blue_128x128.png;rounded=0;" parent="1" vertex="1">
                    <mxGeometry x="100" y="80" width="80" height="80" as="geometry"/>
                </mxCell>
                <mxCell id="51" value="" style="verticalLabelPosition=bottom;verticalAlign=top;html=1;shape=mxgraph.basic.diag_round_rect;dx=6;textOpacity=0;rounded=0;" parent="1" vertex="1">
                    <mxGeometry x="530" y="10" width="190" height="150" as="geometry"/>
                </mxCell>
                <mxCell id="52" value="" style="image;html=1;image=img/lib/clip_art/people/Farmer_Man_Black_128x128.png;rounded=0;" parent="1" vertex="1">
                    <mxGeometry x="540" y="20" width="80" height="80" as="geometry"/>
                </mxCell>
                <mxCell id="53" value="" style="image;html=1;image=img/lib/clip_art/people/Telesales_Woman_128x128.png;rounded=0;" parent="1" vertex="1">
                    <mxGeometry x="630" y="80" width="80" height="80" as="geometry"/>
                </mxCell>
                <mxCell id="54" value="" style="verticalLabelPosition=bottom;verticalAlign=top;html=1;shape=mxgraph.basic.diag_round_rect;dx=6;fillColor=none;strokeColor=#36393d;rounded=0;" parent="1" vertex="1">
                    <mxGeometry x="70" y="350" width="100" height="60" as="geometry"/>
                </mxCell>
                <mxCell id="55" value="" style="verticalLabelPosition=bottom;verticalAlign=top;html=1;shape=mxgraph.basic.diag_round_rect;dx=6;fillColor=none;rounded=0;" parent="1" vertex="1">
                    <mxGeometry x="20" y="370" width="200" height="160" as="geometry"/>
                </mxCell>
                <mxCell id="56" value="Secured Zone" style="text;html=1;align=center;verticalAlign=middle;resizable=0;points=[];autosize=1;strokeColor=none;fillColor=none;fontStyle=1;fontSize=18;fontColor=#66FFFF;rounded=0;" parent="1" vertex="1">
                    <mxGeometry x="60" y="370" width="130" height="30" as="geometry"/>
                </mxCell>
                <mxCell id="57" value="" style="verticalLabelPosition=bottom;verticalAlign=top;html=1;shape=mxgraph.basic.diag_round_rect;dx=6;fillColor=none;rounded=0;" parent="1" vertex="1">
                    <mxGeometry x="540" y="300" width="277" height="260" as="geometry"/>
                </mxCell>
                <mxCell id="58" value="D&lt;br style=&quot;font-size: 28px;&quot;&gt;M&lt;br style=&quot;font-size: 28px;&quot;&gt;Z" style="text;html=1;align=center;verticalAlign=middle;resizable=0;points=[];autosize=1;strokeColor=none;fillColor=none;shadow=0;fontSize=28;fontStyle=1;fontColor=#66FFFF;rounded=0;" parent="1" vertex="1">
                    <mxGeometry x="541" y="370" width="40" height="110" as="geometry"/>
                </mxCell>
                <mxCell id="60" value="" style="verticalLabelPosition=bottom;verticalAlign=top;html=1;shape=mxgraph.basic.diag_round_rect;dx=6;shadow=0;fontSize=28;fillColor=none;rounded=0;" parent="1" vertex="1">
                    <mxGeometry y="635" width="222" height="245" as="geometry"/>
                </mxCell>
                <mxCell id="61" value="Clients" style="text;html=1;align=center;verticalAlign=middle;resizable=0;points=[];autosize=1;strokeColor=none;fillColor=none;fontSize=18;fontColor=#66FFFF;fontStyle=1;rounded=0;" parent="1" vertex="1">
                    <mxGeometry x="78" y="10" width="80" height="30" as="geometry"/>
                </mxCell>
                <mxCell id="62" value="Revendeurs" style="text;html=1;align=center;verticalAlign=middle;resizable=0;points=[];autosize=1;strokeColor=none;fillColor=none;fontSize=18;fontColor=#66FFFF;fontStyle=1;rounded=0;" parent="1" vertex="1">
                    <mxGeometry x="605" y="10" width="120" height="30" as="geometry"/>
                </mxCell>
                <mxCell id="65" value="" style="image;html=1;image=img/lib/clip_art/computers/Server_Tower_128x128.png;shadow=0;fontSize=18;fontColor=#66FFFF;fillColor=none;rounded=0;" parent="1" vertex="1">
                    <mxGeometry x="102" y="760" width="80" height="80" as="geometry"/>
                </mxCell>
                <mxCell id="66" value="" style="image;html=1;image=img/lib/clip_art/computers/Server_Tower_128x128.png;shadow=0;fontSize=18;fontColor=#66FFFF;fillColor=none;rounded=0;" parent="1" vertex="1">
                    <mxGeometry x="102" y="650" width="80" height="80" as="geometry"/>
                </mxCell>
                <mxCell id="71" value="" style="verticalLabelPosition=bottom;verticalAlign=top;html=1;shape=mxgraph.basic.diag_round_rect;dx=6;shadow=0;fontSize=18;fontColor=#66FFFF;fillColor=none;rounded=0;" parent="1" vertex="1">
                    <mxGeometry x="607" y="690" width="210" height="230" as="geometry"/>
                </mxCell>
                <mxCell id="72" value="" style="image;html=1;image=img/lib/clip_art/computers/Monitor_Tower_128x128.png;rounded=0;" parent="1" vertex="1">
                    <mxGeometry x="710" y="717.5" width="80" height="80" as="geometry"/>
                </mxCell>
                <mxCell id="73" value="" style="image;html=1;image=img/lib/clip_art/computers/Monitor_Tower_128x128.png;rounded=0;" parent="1" vertex="1">
                    <mxGeometry x="725" y="810" width="80" height="80" as="geometry"/>
                </mxCell>
                <mxCell id="74" value="SecrÃ©tariat et direction" style="text;html=1;align=center;verticalAlign=middle;resizable=0;points=[];autosize=1;strokeColor=none;fillColor=none;fontSize=18;fontColor=#66FFFF;rounded=0;" parent="1" vertex="1">
                    <mxGeometry x="610" y="690" width="200" height="30" as="geometry"/>
                </mxCell>
                <mxCell id="77" value="Commerciaux" style="text;html=1;align=center;verticalAlign=middle;resizable=0;points=[];autosize=1;strokeColor=none;fillColor=none;fontSize=18;fontColor=#66FFFF;rounded=0;" parent="1" vertex="1">
                    <mxGeometry x="560" y="955" width="130" height="30" as="geometry"/>
                </mxCell>
                <mxCell id="78" value="" style="verticalLabelPosition=bottom;verticalAlign=top;html=1;shape=mxgraph.basic.diag_round_rect;dx=6;shadow=0;fontSize=18;fontColor=#66FFFF;fillColor=none;rounded=0;" parent="1" vertex="1">
                    <mxGeometry x="90" y="950" width="220" height="180" as="geometry"/>
                </mxCell>
                <mxCell id="79" value="" style="image;html=1;image=img/lib/clip_art/computers/Monitor_Tower_128x128.png;rounded=0;" parent="1" vertex="1">
                    <mxGeometry x="220" y="1005" width="80" height="80" as="geometry"/>
                </mxCell>
                <mxCell id="80" value="" style="image;html=1;image=img/lib/clip_art/computers/Monitor_Tower_128x128.png;rounded=0;" parent="1" vertex="1">
                    <mxGeometry x="100" y="1005" width="80" height="80" as="geometry"/>
                </mxCell>
                <mxCell id="81" value="Hangar et Atelier" style="text;html=1;align=center;verticalAlign=middle;resizable=0;points=[];autosize=1;strokeColor=none;fillColor=none;fontSize=18;fontColor=#66FFFF;rounded=0;" parent="1" vertex="1">
                    <mxGeometry x="122" y="950" width="150" height="30" as="geometry"/>
                </mxCell>
                <mxCell id="82" value="" style="verticalLabelPosition=bottom;verticalAlign=top;html=1;shape=mxgraph.basic.diag_round_rect;dx=6;shadow=0;fontSize=18;fontColor=#66FFFF;fillColor=none;rounded=0;" parent="1" vertex="1">
                    <mxGeometry x="350" y="950" width="162" height="150" as="geometry"/>
                </mxCell>
                <mxCell id="83" value="" style="image;html=1;image=img/lib/clip_art/computers/Monitor_Tower_128x128.png;rounded=0;" parent="1" vertex="1">
                    <mxGeometry x="424" y="980" width="80" height="80" as="geometry"/>
                </mxCell>
                <mxCell id="84" value="" style="verticalLabelPosition=bottom;verticalAlign=top;html=1;shape=mxgraph.basic.diag_round_rect;dx=6;shadow=0;fontSize=18;fontColor=#66FFFF;fillColor=none;rounded=0;" parent="1" vertex="1">
                    <mxGeometry x="550" y="950" width="160" height="151" as="geometry"/>
                </mxCell>
                <mxCell id="86" value="" style="image;html=1;image=img/lib/clip_art/telecommunication/iPhone_128x128.png;rounded=0;" parent="1" vertex="1">
                    <mxGeometry x="570" y="1010" width="30" height="41" as="geometry"/>
                </mxCell>
                <mxCell id="87" value="" style="image;html=1;image=img/lib/clip_art/computers/Laptop_128x128.png;shadow=0;fontSize=18;fontColor=#66FFFF;fillColor=none;rounded=0;" parent="1" vertex="1">
                    <mxGeometry x="617" y="985" width="80" height="81" as="geometry"/>
                </mxCell>
                <mxCell id="88" value="Compta" style="text;html=1;align=center;verticalAlign=middle;resizable=0;points=[];autosize=1;strokeColor=none;fillColor=none;fontSize=18;fontColor=#66FFFF;rounded=0;" parent="1" vertex="1">
                    <mxGeometry x="396" y="955" width="80" height="30" as="geometry"/>
                </mxCell>
                <mxCell id="90" value="" style="image;html=1;image=img/lib/clip_art/telecommunication/iPhone_128x128.png;rounded=0;" parent="1" vertex="1">
                    <mxGeometry x="680" y="810" width="30" height="40" as="geometry"/>
                </mxCell>
                <mxCell id="91" value="" style="image;html=1;image=img/lib/clip_art/computers/Laptop_128x128.png;shadow=0;fontSize=18;fontColor=#66FFFF;fillColor=none;rounded=0;" parent="1" vertex="1">
                    <mxGeometry x="610" y="810" width="80" height="80" as="geometry"/>
                </mxCell>
                <mxCell id="116" value="" style="line;strokeWidth=10;direction=south;html=1;shadow=0;fontSize=18;fontColor=#ffffff;fillColor=#0050ef;strokeColor=#001DBC;" vertex="1" parent="1">
                    <mxGeometry x="252" y="630" width="9" height="250" as="geometry"/>
                </mxCell>
                <mxCell id="119" value="" style="line;strokeWidth=10;direction=south;html=1;shadow=0;fontSize=18;fontColor=#ffffff;fillColor=#0050ef;strokeColor=#001DBC;" vertex="1" parent="1">
                    <mxGeometry x="502" y="300" width="10" height="250" as="geometry"/>
                </mxCell>
                <mxCell id="120" value="" style="line;strokeWidth=10;direction=south;html=1;shadow=0;fontSize=18;fontColor=#ffffff;fillColor=#0050ef;strokeColor=#001DBC;" vertex="1" parent="1">
                    <mxGeometry x="560" y="690" width="10" height="220" as="geometry"/>
                </mxCell>
                <mxCell id="121" value="" style="line;strokeWidth=10;direction=west;html=1;shadow=0;fontSize=18;fontColor=#ffffff;fillColor=#0050ef;strokeColor=#001DBC;" vertex="1" parent="1">
                    <mxGeometry x="90" y="910" width="480" height="10" as="geometry"/>
                </mxCell>
                <mxCell id="122" value="" style="line;strokeWidth=10;direction=south;html=1;shadow=0;fontSize=18;fontColor=#ffffff;fillColor=#0050ef;strokeColor=#001DBC;" vertex="1" parent="1">
                    <mxGeometry x="250" y="370" width="10" height="160" as="geometry"/>
                </mxCell>
                <mxCell id="140" value="" style="line;strokeWidth=4;direction=south;html=1;perimeter=backbonePerimeter;points=[];outlineConnect=0;shadow=1;fontSize=18;fontColor=#ffffff;fillColor=#1ba1e2;sketch=0;strokeColor=#006EAF;" vertex="1" parent="1">
                    <mxGeometry x="396" y="200" width="10" height="95" as="geometry"/>
                </mxCell>
                <mxCell id="141" value="" style="line;strokeWidth=4;html=1;perimeter=backbonePerimeter;points=[];outlineConnect=0;shadow=1;sketch=0;fontSize=18;fontColor=#ffffff;fillColor=#1ba1e2;rotation=22;strokeColor=#006EAF;" vertex="1" parent="1">
                    <mxGeometry x="269.34" y="133.37" width="102" height="10" as="geometry"/>
                </mxCell>
                <mxCell id="144" value="" style="line;strokeWidth=4;html=1;perimeter=backbonePerimeter;points=[];outlineConnect=0;shadow=1;sketch=0;fontSize=18;fontColor=#ffffff;fillColor=#1ba1e2;strokeColor=#006EAF;" vertex="1" parent="1">
                    <mxGeometry x="260" y="460" width="108" height="10" as="geometry"/>
                </mxCell>
                <mxCell id="146" value="" style="line;strokeWidth=4;html=1;perimeter=backbonePerimeter;points=[];outlineConnect=0;shadow=1;sketch=0;fontSize=18;fontColor=#ffffff;fillColor=#1ba1e2;rotation=340;strokeColor=#006EAF;" vertex="1" parent="1">
                    <mxGeometry x="424" y="130" width="107.57" height="10" as="geometry"/>
                </mxCell>
                <mxCell id="147" value="" style="line;strokeWidth=4;html=1;perimeter=backbonePerimeter;points=[];outlineConnect=0;shadow=1;sketch=0;fontSize=18;fontColor=#ffffff;fillColor=#1ba1e2;strokeColor=#006EAF;" vertex="1" parent="1">
                    <mxGeometry x="509.67" y="400" width="30.33" height="10" as="geometry"/>
                </mxCell>
                <mxCell id="148" value="" style="line;strokeWidth=4;html=1;perimeter=backbonePerimeter;points=[];outlineConnect=0;shadow=1;sketch=0;fontSize=18;fontColor=#ffffff;fillColor=#1ba1e2;strokeColor=#006EAF;" vertex="1" parent="1">
                    <mxGeometry x="426" y="430" width="76" height="10" as="geometry"/>
                </mxCell>
                <mxCell id="149" value="" style="line;strokeWidth=4;html=1;perimeter=backbonePerimeter;points=[];outlineConnect=0;shadow=1;sketch=0;fontSize=18;fontColor=#ffffff;fillColor=#1ba1e2;strokeColor=#006EAF;direction=south;" vertex="1" parent="1">
                    <mxGeometry x="399" y="346" width="10" height="84" as="geometry"/>
                </mxCell>
                <mxCell id="150" value="" style="line;strokeWidth=4;html=1;perimeter=backbonePerimeter;points=[];outlineConnect=0;shadow=1;sketch=0;fontSize=18;fontColor=#ffffff;fillColor=#1ba1e2;strokeColor=#006EAF;direction=south;" vertex="1" parent="1">
                    <mxGeometry x="395" y="500" width="10" height="90" as="geometry"/>
                </mxCell>
                <mxCell id="152" value="" style="line;strokeWidth=4;html=1;perimeter=backbonePerimeter;points=[];outlineConnect=0;shadow=1;sketch=0;fontSize=18;fontColor=#ffffff;fillColor=#1ba1e2;strokeColor=#006EAF;" vertex="1" parent="1">
                    <mxGeometry x="260" y="717.5" width="60" height="10" as="geometry"/>
                </mxCell>
                <mxCell id="153" value="" style="line;strokeWidth=4;html=1;perimeter=backbonePerimeter;points=[];outlineConnect=0;shadow=1;sketch=0;fontSize=18;fontColor=#ffffff;fillColor=#1ba1e2;strokeColor=#006EAF;direction=south;" vertex="1" parent="1">
                    <mxGeometry x="305.84" y="610" width="24" height="112" as="geometry"/>
                </mxCell>
                <mxCell id="157" value="" style="line;strokeWidth=4;html=1;perimeter=backbonePerimeter;points=[];outlineConnect=0;shadow=1;sketch=0;fontSize=18;fontColor=#ffffff;fillColor=#1ba1e2;strokeColor=#006EAF;" vertex="1" parent="1">
                    <mxGeometry x="223.67" y="752.5" width="26.33" height="10" as="geometry"/>
                </mxCell>
                <mxCell id="159" value="" style="line;strokeWidth=4;html=1;perimeter=backbonePerimeter;points=[];outlineConnect=0;shadow=1;sketch=0;fontSize=18;fontColor=#ffffff;fillColor=#1ba1e2;strokeColor=#006EAF;" vertex="1" parent="1">
                    <mxGeometry x="222" y="430" width="28" height="10" as="geometry"/>
                </mxCell>
                <mxCell id="160" value="" style="line;strokeWidth=4;html=1;perimeter=backbonePerimeter;points=[];outlineConnect=0;shadow=1;sketch=0;fontSize=18;fontColor=#ffffff;fillColor=#1ba1e2;strokeColor=#006EAF;" vertex="1" parent="1">
                    <mxGeometry x="316" y="605" width="52" height="10" as="geometry"/>
                </mxCell>
                <mxCell id="163" value="" style="line;strokeWidth=4;direction=south;html=1;perimeter=backbonePerimeter;points=[];outlineConnect=0;shadow=1;fontSize=18;fontColor=#ffffff;fillColor=#1ba1e2;sketch=0;strokeColor=#006EAF;" vertex="1" parent="1">
                    <mxGeometry x="396" y="627" width="10" height="283" as="geometry"/>
                </mxCell>
                <mxCell id="165" value="" style="line;strokeWidth=4;html=1;perimeter=backbonePerimeter;points=[];outlineConnect=0;shadow=1;sketch=0;fontSize=18;fontColor=#ffffff;fillColor=#1ba1e2;strokeColor=#006EAF;" vertex="1" parent="1">
                    <mxGeometry x="570" y="795" width="36" height="10" as="geometry"/>
                </mxCell>
                <mxCell id="166" value="" style="line;strokeWidth=4;html=1;perimeter=backbonePerimeter;points=[];outlineConnect=0;shadow=1;sketch=0;fontSize=18;fontColor=#ffffff;fillColor=#1ba1e2;strokeColor=#006EAF;direction=south;" vertex="1" parent="1">
                    <mxGeometry x="440" y="919" width="5" height="31" as="geometry"/>
                </mxCell>
                <mxCell id="167" value="" style="line;strokeWidth=4;html=1;perimeter=backbonePerimeter;points=[];outlineConnect=0;shadow=1;sketch=0;fontSize=18;fontColor=#ffffff;fillColor=#1ba1e2;strokeColor=#006EAF;direction=south;" vertex="1" parent="1">
                    <mxGeometry x="557" y="920" width="8" height="31" as="geometry"/>
                </mxCell>
                <mxCell id="168" value="" style="line;strokeWidth=4;html=1;perimeter=backbonePerimeter;points=[];outlineConnect=0;shadow=1;sketch=0;fontSize=18;fontColor=#ffffff;fillColor=#1ba1e2;strokeColor=#006EAF;direction=south;" vertex="1" parent="1">
                    <mxGeometry x="197.5" y="919" width="5" height="31" as="geometry"/>
                </mxCell>
                <mxCell id="169" value="" style="image;html=1;image=img/lib/clip_art/networking/Email_128x128.png;shadow=1;sketch=0;fontSize=18;fontColor=#66FFFF;strokeWidth=10;fillColor=none;" vertex="1" parent="1">
                    <mxGeometry x="610" y="420" width="45.5" height="35" as="geometry"/>
                </mxCell>
                <mxCell id="170" value="Mail" style="text;html=1;align=center;verticalAlign=middle;resizable=0;points=[];autosize=1;strokeColor=none;fillColor=none;fontSize=14;fontColor=#CCFFFF;" vertex="1" parent="1">
                    <mxGeometry x="622" y="505" width="40" height="20" as="geometry"/>
                </mxCell>
                <mxCell id="171" value="Resolver" style="text;html=1;align=center;verticalAlign=middle;resizable=0;points=[];autosize=1;strokeColor=none;fillColor=none;fontSize=14;fontColor=#CCFFFF;" vertex="1" parent="1">
                    <mxGeometry x="715" y="505" width="70" height="20" as="geometry"/>
                </mxCell>
                <mxCell id="172" value="VoIP" style="text;html=1;align=center;verticalAlign=middle;resizable=0;points=[];autosize=1;strokeColor=none;fillColor=none;fontSize=14;fontColor=#CCFFFF;" vertex="1" parent="1">
                    <mxGeometry x="725" y="395" width="50" height="20" as="geometry"/>
                </mxCell>
                <mxCell id="173" value="SOA Externe" style="text;html=1;align=center;verticalAlign=middle;resizable=0;points=[];autosize=1;strokeColor=none;fillColor=none;fontSize=14;fontColor=#CCFFFF;" vertex="1" parent="1">
                    <mxGeometry x="584" y="390" width="100" height="20" as="geometry"/>
                </mxCell>
                <mxCell id="174" value="SOA Interne" style="text;html=1;align=center;verticalAlign=middle;resizable=0;points=[];autosize=1;strokeColor=none;fillColor=none;fontSize=14;fontColor=#CCFFFF;" vertex="1" parent="1">
                    <mxGeometry x="73" y="480" width="90" height="20" as="geometry"/>
                </mxCell>
                <mxCell id="175" value="DHCP" style="text;html=1;align=center;verticalAlign=middle;resizable=0;points=[];autosize=1;strokeColor=none;fillColor=none;fontSize=14;fontColor=#CCFFFF;" vertex="1" parent="1">
                    <mxGeometry x="30" y="727.5" width="60" height="20" as="geometry"/>
                </mxCell>
                <mxCell id="176" value="Proxy" style="text;html=1;align=center;verticalAlign=middle;resizable=0;points=[];autosize=1;strokeColor=none;fillColor=none;fontSize=14;fontColor=#CCFFFF;" vertex="1" parent="1">
                    <mxGeometry x="115" y="727.5" width="50" height="20" as="geometry"/>
                </mxCell>
                <mxCell id="177" value="Cache/Forwarder" style="text;html=1;align=center;verticalAlign=middle;resizable=0;points=[];autosize=1;strokeColor=none;fillColor=none;fontSize=14;fontColor=#CCFFFF;" vertex="1" parent="1">
                    <mxGeometry x="100" y="840" width="120" height="20" as="geometry"/>
                </mxCell>
                <mxCell id="178" value="" style="image;html=1;image=img/lib/clip_art/finance/Piggy_Bank_128x128.png;shadow=1;sketch=0;fontSize=14;fontColor=#CCFFFF;strokeWidth=10;fillColor=none;flipH=1;" vertex="1" parent="1">
                    <mxGeometry x="468" y="977.5" width="34" height="27.5" as="geometry"/>
                </mxCell>
                <mxCell id="179" value="" style="points=[];aspect=fixed;html=1;align=center;shadow=0;dashed=0;image;image=img/lib/allied_telesis/computer_and_terminals/VOIP_IP_phone.svg;sketch=0;fontSize=14;fontColor=#CCFFFF;strokeWidth=10;fillColor=none;" vertex="1" parent="1">
                    <mxGeometry x="650" y="734.7" width="30" height="45.6" as="geometry"/>
                </mxCell>
                <mxCell id="180" value="" style="points=[];aspect=fixed;html=1;align=center;shadow=0;dashed=0;image;image=img/lib/allied_telesis/computer_and_terminals/VOIP_IP_phone.svg;sketch=0;fontSize=14;fontColor=#CCFFFF;strokeWidth=10;fillColor=none;" vertex="1" parent="1">
                    <mxGeometry x="185" y="985.0000000000001" width="30" height="45.6" as="geometry"/>
                </mxCell>
                <mxCell id="181" value="" style="points=[];aspect=fixed;html=1;align=center;shadow=0;dashed=0;image;image=img/lib/allied_telesis/computer_and_terminals/VOIP_IP_phone.svg;sketch=0;fontSize=14;fontColor=#CCFFFF;strokeWidth=10;fillColor=none;" vertex="1" parent="1">
                    <mxGeometry x="371.34000000000003" y="997.2" width="30" height="45.6" as="geometry"/>
                </mxCell>
            </root>
        </mxGraphModel>
    </diagram>
</mxfile>